<?xml version="1.0" encoding="UTF-8" standalone="no"?>
<!DOCTYPE svg PUBLIC "-//W3C//DTD SVG 1.1//EN" "http://www.w3.org/Graphics/SVG/1.1/DTD/svg11.dtd">
<svg width="100%" height="100%" viewBox="0 0 849 266" version="1.1" xmlns="http://www.w3.org/2000/svg" xmlns:xlink="http://www.w3.org/1999/xlink" xml:space="preserve" xmlns:serif="http://www.serif.com/" style="fill-rule:evenodd;clip-rule:evenodd;stroke-linejoin:round;stroke-miterlimit:2;">
    <g transform="matrix(1,0,0,1,-353.046174,-341.157448)">
        <g>
            <path d="M484.29,341.65C549.478,336.738 558.019,368.978 576.636,419.882L601.532,488.261L624.214,550.455C628.566,562.484 632.856,574.315 636.701,586.697C643.591,608.886 607.197,605.476 595.378,602.068C590.781,600.743 586.019,583.561 584.292,578.683C555.766,598.02 507.299,598.21 480.56,575.86C517.694,561.033 533.742,552.456 566.93,530.063C564.502,522.087 559.843,510.514 556.879,502.558L537.821,451.308C530.088,434.09 520.825,393.715 505.04,385.335C499.218,382.315 492.431,381.744 486.187,383.75C472.652,388.189 468.733,403.723 464.256,415.681C461.358,423.42 458.732,431.484 456.023,439.303L418.084,549.172L407.297,580.415C405.251,586.328 403.359,592.398 400.758,598.023C397.804,604.379 390.581,604.285 384.561,603.995C376.995,604.295 353.339,606.207 353.05,593.898C352.813,583.775 363.654,556.834 367.151,546.967L389.011,485.279C400.779,451.923 412.339,418.136 424.744,385.005C426.56,380.154 433.018,367.503 436.278,363.638C449.862,347.531 464.595,343.488 484.29,341.65Z" style="fill:rgb(22,30,62);"/>
            <path d="M936.472,430.925C952.437,428.988 970.497,431.432 985.858,436.492C1035.67,452.9 1022.69,515.129 1024.45,554.485C1025,567.003 1025.26,598.275 1024.48,600.468C1019.24,606.194 993.477,604.867 986.926,600.301C983.745,598.084 983.202,589.515 982.713,585.668C969.106,596.258 957.176,603.868 939.307,605.792C918.688,608.012 899.469,606.111 882.684,592.949C882.239,592.537 881.804,592.114 881.379,591.681C863.032,572.957 860.998,538.917 880.501,520.646C905.241,497.469 948.908,502.044 980.282,502.795C980.111,497.091 980.086,491.42 978.321,485.932C966.067,447.839 893.135,479.374 885.253,474.71C883.745,473.818 883.3,472.052 883.012,470.413C882.229,465.95 881.432,447.247 884.242,443.945C891.654,435.235 925.248,431.65 936.472,430.925ZM941.801,533.697C934.653,534.245 929.799,534.478 923.107,537.405C909.884,543.188 907.19,559.455 918.795,568.472C927.8,575.469 939.161,575.015 949.84,573.72C963.402,570.963 972.04,566.836 980.014,555.225C980.084,547.923 980.11,540.622 980.091,533.32C973.569,533.307 947.135,532.896 941.801,533.697Z" style="fill:rgb(22,30,62);"/>
            <path d="M1120.92,430.914C1135.41,428.559 1171.76,433.325 1186.39,439.81C1188.67,440.825 1188.84,442.78 1189.79,444.649C1191.17,447.374 1182.96,470.85 1182.21,472.043C1180.57,472.938 1179.83,473.402 1177.87,472.92C1166,469.483 1152.88,467.461 1140.89,466.209C1130.43,465.116 1102.39,465.701 1104.39,481.47C1106.54,498.491 1149.92,500.758 1162.97,507.098C1172.84,511.893 1180.84,513.655 1188.79,522.068C1205.58,538.111 1205.28,572.194 1188.45,588.241C1171.64,604.273 1148.15,606.526 1126.12,606.516C1113.9,606.714 1062.19,602.679 1057.74,590.424C1057.79,586.43 1063.7,566.945 1065.67,563.223C1067.25,560.262 1084.24,566.087 1088.25,567.084C1100.58,570.182 1113.24,571.778 1125.96,571.838C1136.61,571.791 1157.91,570.558 1156.69,555.259C1155.74,543.315 1139.34,539.792 1129.96,537.628C1100.06,530.828 1063.03,524.57 1060.13,486.788C1057.17,448.293 1088,433.509 1120.92,430.914Z" style="fill:rgb(22,30,62);fill-rule:nonzero;"/>
            <path d="M686.043,370.141C689.099,369.952 692.198,369.7 695.259,369.71C697.749,369.717 701.749,370.24 703.441,372.252C707.222,376.748 705.696,423.911 705.713,433.376C714.146,433.501 746.306,431.97 752.037,435.242C754.693,439.006 754.571,464.183 752.095,465.119C741.84,468.995 716.753,467.379 705.698,467.314C705.684,482.973 703.902,552.128 707.268,561.323C713.473,578.275 740.42,566.299 750.597,571.654C752.288,572.544 753.091,574.07 753.465,575.887C754.662,581.707 754.427,598.664 751.391,603.364C731.597,607.954 690.11,607.561 675.049,592.204C658.926,575.764 662.066,547.89 662.082,526.458L662.076,467.152C656.296,467.148 643.203,468.464 638.447,466.296C634.77,461.696 634.518,439.858 637.627,434.814C642.399,432.425 655.971,433.411 662.066,433.538C662.115,419.253 659.38,389.015 665.825,375.942C667.911,371.71 680.956,370.705 686.043,370.141Z" style="fill:rgb(22,30,62);fill-rule:nonzero;"/>
            <path d="M794.189,368.521C801.947,368.086 818.66,367.26 825.569,370.208C828.481,371.177 829.308,374.688 829.492,377.525C830.586,394.374 830.098,412.181 830.094,429.031L830.073,528.882C829.956,541.404 828.848,556.285 830.821,568.498C831.687,573.857 845.786,568.635 845.891,579.424C845.958,586.207 847.603,594.943 844.836,601.913C843.819,604.474 840.673,604.749 838.466,605.299C782.05,607.463 785.897,586.755 785.918,540.188L785.963,483.097C785.995,449.43 785.918,415.767 785.893,382.103C785.887,374.069 786.553,371.146 794.189,368.521Z" style="fill:rgb(22,30,62);fill-rule:nonzero;"/>
            <path d="M480.558,461.415C482.096,461.344 483.711,461.24 485.245,461.4C491.79,462.08 533.938,487.675 538.264,493.174C539.804,495.131 541.339,497.962 540.859,500.543C539.361,508.591 521.597,517.094 515.04,521.249C497.253,531.769 471.555,556.766 473.512,515.964C474.258,500.395 472.367,483.939 474.184,468.374C474.544,465.288 478.181,462.895 480.558,461.415Z" style="fill:rgb(22,30,62);fill-rule:nonzero;"/>
        </g>
    </g>
</svg>
