<?xml version="1.0" encoding="UTF-8" standalone="no"?>
<!DOCTYPE svg PUBLIC "-//W3C//DTD SVG 1.1//EN" "http://www.w3.org/Graphics/SVG/1.1/DTD/svg11.dtd">
<svg width="100%" height="100%" viewBox="0 0 618 572" version="1.1" xmlns="http://www.w3.org/2000/svg" xmlns:xlink="http://www.w3.org/1999/xlink" xml:space="preserve" xmlns:serif="http://www.serif.com/" style="fill-rule:evenodd;clip-rule:evenodd;stroke-linejoin:round;stroke-miterlimit:2;">
    <g transform="matrix(1,0,0,1,-203.194931,-226.114819)">
        <g transform="matrix(1,0,0,1,-1.744641,30.808262)">
            <g transform="matrix(2.170745,0,0,2.170745,-561.433669,-545.25929)">
                <path d="M484.29,341.65C549.478,336.738 558.019,368.978 576.636,419.882L601.532,488.261L624.214,550.455C628.566,562.484 632.856,574.315 636.701,586.697C643.591,608.886 607.197,605.476 595.378,602.068C590.781,600.743 586.019,583.561 584.292,578.683C555.766,598.02 507.299,598.21 480.56,575.86C517.694,561.033 533.742,552.456 566.93,530.063C564.502,522.087 559.843,510.514 556.879,502.558L537.821,451.308C530.088,434.09 520.825,393.715 505.04,385.335C499.218,382.315 492.431,381.744 486.187,383.75C472.652,388.189 468.733,403.723 464.256,415.681C461.358,423.42 458.732,431.484 456.023,439.303L418.084,549.172L407.297,580.415C405.251,586.328 403.359,592.398 400.758,598.023C397.804,604.379 390.581,604.285 384.561,603.995C376.995,604.295 353.339,606.207 353.05,593.898C352.813,583.775 363.654,556.834 367.151,546.967L389.011,485.279C400.779,451.923 412.339,418.136 424.744,385.005C426.56,380.154 433.018,367.503 436.278,363.638C449.862,347.531 464.595,343.488 484.29,341.65Z" style="fill:rgb(44,58,105);"/>
            </g>
            <g transform="matrix(2.170745,0,0,2.170745,-561.433669,-545.25929)">
                <path d="M480.558,461.415C482.096,461.344 483.711,461.24 485.245,461.4C491.79,462.08 533.938,487.675 538.264,493.174C539.804,495.131 541.339,497.962 540.859,500.543C539.361,508.591 521.597,517.094 515.04,521.249C497.253,531.769 471.555,556.766 473.512,515.964C474.258,500.395 472.367,483.939 474.184,468.374C474.544,465.288 478.181,462.895 480.558,461.415Z" style="fill:rgb(44,58,105);fill-rule:nonzero;"/>
            </g>
        </g>
    </g>
</svg>
